<?xml version="1.0" encoding="utf-8"?>
<!-- Generator: Adobe Illustrator 16.0.0, SVG Export Plug-In . SVG Version: 6.00 Build 0)  -->
<!DOCTYPE svg PUBLIC "-//W3C//DTD SVG 1.1//EN" "http://www.w3.org/Graphics/SVG/1.1/DTD/svg11.dtd">
<svg version="1.1" id="icons" xmlns="http://www.w3.org/2000/svg" xmlns:xlink="http://www.w3.org/1999/xlink" x="0px" y="0px"
	 width="64px" height="64px" viewBox="0 0 64 64" enable-background="new 0 0 64 64" xml:space="preserve">
<g>
	<g>
		<polygon fill="#5D9CEC" points="53.005,5 41.005,1 23.005,1 8.995,5 1.995,25.99 12.995,31 15.995,22 16.005,63 48.005,63 
			48.005,22 51.005,31 62.005,25.99 		"/>
	</g>
	<g>
		<rect x="22.005" y="49" fill="#E6E9ED" width="20" height="3"/>
	</g>
</g>
<g>
	<g>
		<path d="M48,64L48,64c-0.553,0-1-0.448-1-1l0.008-40.996c0-0.49,0.355-0.909,0.84-0.987c0.477-0.078,0.954,0.205,1.109,0.672
			l2.643,7.939l9.1-4.139L52.258,5.805L40.684,1.948c-0.523-0.174-0.807-0.74-0.632-1.265c0.173-0.523,0.735-0.807,1.265-0.632
			l12,3.998c0.271,0.09,0.49,0.292,0.603,0.554L62.923,25.6c0.215,0.5-0.01,1.08-0.505,1.305l-11.002,5.004
			c-0.259,0.117-0.555,0.12-0.813,0.007c-0.261-0.113-0.46-0.332-0.55-0.602l-1.046-3.144L49,63C49,63.553,48.552,64,48,64z"/>
	</g>
	<g>
		<path d="M16,64c-0.552,0-1-0.447-1-1l-0.007-34.83l-1.046,3.144c-0.09,0.27-0.289,0.488-0.55,0.602
			c-0.26,0.113-0.556,0.11-0.813-0.007L1.582,26.904c-0.466-0.212-0.696-0.741-0.534-1.227L8.05,4.682
			c0.104-0.313,0.356-0.555,0.674-0.646l14.002-3.998c0.525-0.146,1.084,0.155,1.236,0.688c0.151,0.531-0.156,1.084-0.688,1.236
			L9.78,5.814L3.229,25.457l9.171,4.171l2.643-7.939c0.155-0.467,0.629-0.751,1.109-0.672c0.484,0.078,0.84,0.497,0.84,0.987L17,63
			C17,63.552,16.553,64,16,64z"/>
	</g>
	<g>
		<path d="M48,64H16c-0.553,0-1-0.447-1-1s0.447-1,1-1h32c0.553,0,1,0.447,1,1S48.553,64,48,64z"/>
	</g>
	<g>
		<path d="M41,2H23c-0.553,0-1-0.447-1-1s0.447-1,1-1h18c0.553,0,1,0.447,1,1S41.553,2,41,2z"/>
	</g>
	<g>
		<g>
			<path d="M25.997,43c-0.553,0-1-0.447-1-1V25c0-0.553,0.447-1,1-1s1,0.447,1,1v17C26.997,42.553,26.55,43,25.997,43z"/>
		</g>
		<g>
			<path d="M23,29c-0.256,0-0.512-0.098-0.707-0.293c-0.391-0.39-0.391-1.023,0-1.414l2.997-3c0.391-0.391,1.023-0.391,1.414,0
				c0.391,0.39,0.391,1.023,0,1.414l-2.997,3C23.512,28.902,23.256,29,23,29z"/>
		</g>
		<g>
			<path d="M27.996,43h-3.995c-0.553,0-1-0.447-1-1s0.447-1,1-1h3.995c0.553,0,1,0.447,1,1S28.549,43,27.996,43z"/>
		</g>
		<g>
			<path d="M39.997,30c-0.553,0-1-0.447-1-1c0-1.654-1.346-3-3-3s-3,1.346-3,3c0,0.553-0.447,1-1,1s-1-0.447-1-1
				c0-2.757,2.243-5,5-5s5,2.243,5,5C40.997,29.553,40.55,30,39.997,30z"/>
		</g>
		<g>
			<path d="M35.997,43c-2.757,0-5-2.243-5-5c0-0.553,0.447-1,1-1s1,0.447,1,1c0,1.654,1.346,3,3,3s3-1.346,3-3c0-0.553,0.447-1,1-1
				s1,0.447,1,1C40.997,40.757,38.754,43,35.997,43z"/>
		</g>
		<g>
			<path d="M31.997,39c-0.553,0-1-0.447-1-1v-9c0-0.553,0.447-1,1-1s1,0.447,1,1v9C32.997,38.553,32.55,39,31.997,39z"/>
		</g>
		<g>
			<path d="M39.997,39c-0.553,0-1-0.447-1-1v-9c0-0.553,0.447-1,1-1s1,0.447,1,1v9C40.997,38.553,40.55,39,39.997,39z"/>
		</g>
	</g>
	<g>
		<path d="M41,15.998H23c-0.553,0-1-0.447-1-1s0.447-1,1-1h18c0.553,0,1,0.447,1,1S41.553,15.998,41,15.998z"/>
	</g>
	<g>
		<path d="M36,18.998h-8c-0.553,0-1-0.447-1-1s0.447-1,1-1h8c0.553,0,1,0.447,1,1S36.553,18.998,36,18.998z"/>
	</g>
	<g>
		<path d="M42,53H22c-0.553,0-1-0.447-1-1v-3c0-0.553,0.447-1,1-1h20c0.553,0,1,0.447,1,1v3C43,52.553,42.553,53,42,53z M23,51h18
			v-1H23V51z"/>
	</g>
</g>
</svg>
