<?xml version="1.0" encoding="UTF-8"?>
<svg xmlns="http://www.w3.org/2000/svg" xmlns:xlink="http://www.w3.org/1999/xlink" width="254.1pt" height="326.44pt" viewBox="0 0 254.1 326.44" version="1.1">
<g id="surface1">
<path style=" stroke:none;fill-rule:nonzero;fill:rgb(14.898682%,13.299561%,38.398743%);fill-opacity:1;" d="M 194.308594 24.199219 C 141.90625 24.199219 127.074219 1.765625 127.074219 1.765625 C 127.074219 1.765625 112.195313 24.199219 59.789063 24.199219 C 19.710938 24.199219 0.976563 4.621094 0.976563 4.621094 L 0.976563 223.402344 C 0.976563 223.402344 13.046875 242.609375 49.519531 274.042969 C 85.992188 305.472656 127.074219 325.355469 127.074219 325.355469 C 127.074219 325.355469 168.105469 305.472656 204.578125 274.042969 C 241.050781 242.609375 253.125 223.402344 253.125 223.402344 L 253.125 4.621094 C 253.125 4.621094 234.390625 24.199219 194.308594 24.199219 "/>
<path style="fill:none;stroke-width:19.4876;stroke-linecap:butt;stroke-linejoin:miter;stroke:rgb(14.898682%,13.299561%,38.398743%);stroke-opacity:1;stroke-miterlimit:4;" d="M 1943.085938 3022.407813 C 1419.0625 3022.407813 1270.742188 3246.74375 1270.742188 3246.74375 C 1270.742188 3246.74375 1121.953125 3022.407813 597.890625 3022.407813 C 197.109375 3022.407813 9.765625 3218.189063 9.765625 3218.189063 L 9.765625 1030.376563 C 9.765625 1030.376563 130.46875 838.30625 495.195313 523.970313 C 859.921875 209.673438 1270.742188 10.845313 1270.742188 10.845313 C 1270.742188 10.845313 1681.054688 209.673438 2045.78125 523.970313 C 2410.507813 838.30625 2531.25 1030.376563 2531.25 1030.376563 L 2531.25 3218.189063 C 2531.25 3218.189063 2343.90625 3022.407813 1943.085938 3022.407813 Z M 1943.085938 3022.407813 " transform="matrix(0.1,0,0,-0.1,0,326.44)"/>
<path style=" stroke:none;fill-rule:nonzero;fill:rgb(100%,100%,100%);fill-opacity:1;" d="M 242.917969 101.683594 L 242.917969 220.195313 C 238.679688 225.972656 225.5 242.535156 197.914063 266.308594 C 169.800781 290.535156 138.472656 307.917969 127.070313 313.898438 C 115.660156 307.917969 84.300781 290.539063 56.183594 266.308594 C 28.597656 242.535156 15.417969 225.976563 11.183594 220.195313 L 11.183594 101.683594 L 242.917969 101.683594 "/>
<path style=" stroke:none;fill-rule:nonzero;fill:rgb(92.89856%,10.998535%,14.099121%);fill-opacity:1;" d="M 11.109375 103.839844 L 11.109375 220.589844 C 13.902344 224.285156 19.933594 231.734375 30.355469 242.199219 L 30.355469 103.839844 L 11.109375 103.839844 "/>
<path style=" stroke:none;fill-rule:nonzero;fill:rgb(92.89856%,10.998535%,14.099121%);fill-opacity:1;" d="M 46.800781 103.839844 L 46.800781 258.011719 C 49.726563 260.667969 52.847656 263.433594 56.183594 266.308594 C 59.324219 269.011719 62.5 271.632813 65.6875 274.15625 L 65.6875 103.839844 L 46.800781 103.839844 "/>
<path style=" stroke:none;fill-rule:nonzero;fill:rgb(92.89856%,10.998535%,14.099121%);fill-opacity:1;" d="M 82.132813 103.839844 L 82.132813 286.421875 C 88.746094 291.066406 95.144531 295.25 101.019531 298.914063 L 101.019531 103.839844 L 82.132813 103.839844 "/>
<path style=" stroke:none;fill-rule:nonzero;fill:rgb(92.89856%,10.998535%,14.099121%);fill-opacity:1;" d="M 117.464844 103.839844 L 117.464844 308.667969 C 121.402344 310.882813 124.675781 312.640625 127.070313 313.898438 C 129.398438 312.675781 132.558594 310.980469 136.351563 308.847656 L 136.351563 103.839844 L 117.464844 103.839844 "/>
<path style=" stroke:none;fill-rule:nonzero;fill:rgb(92.89856%,10.998535%,14.099121%);fill-opacity:1;" d="M 152.796875 103.839844 L 152.796875 299.105469 C 158.664063 295.449219 165.0625 291.269531 171.679688 286.625 L 171.679688 103.839844 L 152.796875 103.839844 "/>
<path style=" stroke:none;fill-rule:nonzero;fill:rgb(92.89856%,10.998535%,14.099121%);fill-opacity:1;" d="M 188.125 103.839844 L 188.125 274.386719 C 191.410156 271.785156 194.683594 269.09375 197.914063 266.308594 C 201.144531 263.527344 204.171875 260.847656 207.011719 258.269531 L 207.011719 103.839844 L 188.125 103.839844 "/>
<path style=" stroke:none;fill-rule:nonzero;fill:rgb(92.89856%,10.998535%,14.099121%);fill-opacity:1;" d="M 223.457031 103.839844 L 223.457031 242.488281 C 233.832031 232.222656 239.964844 224.820313 242.933594 220.96875 L 242.933594 103.839844 L 223.457031 103.839844 "/>
<path style=" stroke:none;fill-rule:nonzero;fill:rgb(14.898682%,13.299561%,38.398743%);fill-opacity:1;" d="M 0.976563 106.289063 L 0.976563 4.621094 C 0.976563 4.621094 19.710938 24.199219 59.789063 24.199219 C 112.195313 24.199219 127.074219 1.765625 127.074219 1.765625 C 127.074219 1.765625 141.90625 24.199219 194.308594 24.199219 C 234.390625 24.199219 253.125 4.621094 253.125 4.621094 L 253.125 106.289063 L 0.976563 106.289063 "/>
<path style=" stroke:none;fill-rule:evenodd;fill:rgb(100%,100%,100%);fill-opacity:1;" d="M 217.945313 68.476563 L 221.605469 79.46875 L 233.1875 79.550781 L 223.863281 86.429688 L 227.367188 97.46875 L 217.945313 90.726563 L 208.523438 97.46875 L 212.027344 86.429688 L 202.703125 79.550781 L 214.285156 79.46875 L 217.945313 68.476563 "/>
<path style=" stroke:none;fill-rule:evenodd;fill:rgb(100%,100%,100%);fill-opacity:1;" d="M 181.269531 68.476563 L 184.929688 79.46875 L 196.511719 79.550781 L 187.1875 86.429688 L 190.691406 97.46875 L 181.269531 90.726563 L 171.851563 97.46875 L 175.351563 86.429688 L 166.027344 79.550781 L 177.613281 79.46875 L 181.269531 68.476563 "/>
<path style=" stroke:none;fill-rule:evenodd;fill:rgb(100%,100%,100%);fill-opacity:1;" d="M 144.285156 68.476563 L 147.945313 79.46875 L 159.53125 79.550781 L 150.203125 86.429688 L 153.707031 97.46875 L 144.285156 90.726563 L 134.867188 97.46875 L 138.367188 86.429688 L 129.046875 79.550781 L 140.628906 79.46875 L 144.285156 68.476563 "/>
<path style=" stroke:none;fill-rule:evenodd;fill:rgb(100%,100%,100%);fill-opacity:1;" d="M 107.609375 68.476563 L 111.269531 79.46875 L 122.855469 79.550781 L 113.53125 86.429688 L 117.03125 97.46875 L 107.609375 90.726563 L 98.191406 97.46875 L 101.691406 86.429688 L 92.371094 79.550781 L 103.953125 79.46875 L 107.609375 68.476563 "/>
<path style=" stroke:none;fill-rule:evenodd;fill:rgb(100%,100%,100%);fill-opacity:1;" d="M 71.550781 68.476563 L 75.210938 79.46875 L 86.792969 79.550781 L 77.472656 86.429688 L 80.972656 97.46875 L 71.550781 90.726563 L 62.132813 97.46875 L 65.632813 86.429688 L 56.3125 79.550781 L 67.894531 79.46875 L 71.550781 68.476563 "/>
<path style=" stroke:none;fill-rule:evenodd;fill:rgb(100%,100%,100%);fill-opacity:1;" d="M 34.878906 68.476563 L 38.535156 79.46875 L 50.121094 79.550781 L 40.796875 86.429688 L 44.296875 97.46875 L 34.878906 90.726563 L 25.457031 97.46875 L 28.957031 86.429688 L 19.636719 79.550781 L 31.21875 79.46875 L 34.878906 68.476563 "/>
<path style=" stroke:none;fill-rule:evenodd;fill:rgb(100%,100%,100%);fill-opacity:1;" d="M 94.050781 36.117188 L 97.710938 47.109375 L 109.292969 47.191406 L 99.96875 54.066406 L 103.472656 65.109375 L 94.050781 58.367188 L 84.632813 65.109375 L 88.132813 54.066406 L 78.808594 47.191406 L 90.394531 47.109375 L 94.050781 36.117188 "/>
<path style=" stroke:none;fill-rule:evenodd;fill:rgb(100%,100%,100%);fill-opacity:1;" d="M 126.527344 24.058594 L 130.558594 36.160156 L 143.3125 36.253906 L 133.042969 43.824219 L 136.902344 55.980469 L 126.527344 48.558594 L 116.15625 55.980469 L 120.011719 43.824219 L 109.746094 36.253906 L 122.5 36.160156 L 126.527344 24.058594 "/>
<path style=" stroke:none;fill-rule:evenodd;fill:rgb(100%,100%,100%);fill-opacity:1;" d="M 57.992188 36.117188 L 61.652344 47.109375 L 73.234375 47.191406 L 63.910156 54.066406 L 67.414063 65.109375 L 57.992188 58.367188 L 48.570313 65.109375 L 52.074219 54.066406 L 42.75 47.191406 L 54.332031 47.109375 L 57.992188 36.117188 "/>
<path style=" stroke:none;fill-rule:evenodd;fill:rgb(100%,100%,100%);fill-opacity:1;" d="M 21.316406 36.117188 L 24.976563 47.109375 L 36.558594 47.191406 L 27.234375 54.066406 L 30.738281 65.109375 L 21.316406 58.367188 L 11.898438 65.109375 L 15.398438 54.066406 L 6.074219 47.191406 L 17.65625 47.109375 L 21.316406 36.117188 "/>
<path style=" stroke:none;fill-rule:evenodd;fill:rgb(100%,100%,100%);fill-opacity:1;" d="M 230.582031 36.117188 L 234.242188 47.109375 L 245.824219 47.191406 L 236.5 54.066406 L 240.003906 65.109375 L 230.582031 58.367188 L 221.160156 65.109375 L 224.660156 54.066406 L 215.339844 47.191406 L 226.921875 47.109375 L 230.582031 36.117188 "/>
<path style=" stroke:none;fill-rule:evenodd;fill:rgb(100%,100%,100%);fill-opacity:1;" d="M 194.523438 36.117188 L 198.179688 47.109375 L 209.765625 47.191406 L 200.441406 54.066406 L 203.945313 65.109375 L 194.523438 58.367188 L 185.101563 65.109375 L 188.601563 54.066406 L 179.28125 47.191406 L 190.863281 47.109375 L 194.523438 36.117188 "/>
<path style=" stroke:none;fill-rule:evenodd;fill:rgb(100%,100%,100%);fill-opacity:1;" d="M 157.847656 36.117188 L 161.507813 47.109375 L 173.089844 47.191406 L 163.765625 54.066406 L 167.269531 65.109375 L 157.847656 58.367188 L 148.429688 65.109375 L 151.929688 54.066406 L 142.605469 47.191406 L 154.1875 47.109375 L 157.847656 36.117188 "/>
</g>
</svg>
